<?xml version="1.0" encoding="UTF-8" standalone="no"?>
<!-- Created with Inkscape (http://www.inkscape.org/) -->

<svg
   version="1.1"
   id="svg169"
   width="410"
   height="410"
   viewBox="0 0 410 410"
   xmlns="http://www.w3.org/2000/svg"
   xmlns:svg="http://www.w3.org/2000/svg">
  <defs
     id="defs173" />
  <g
     id="g8569"
     transform="translate(-449.25,-4.2150001)">
    <path
       id="path335"
       style="fill:#4ad0e2;fill-opacity:1;stroke-width:1.27659"
       d="M 790.92578,304.99422 H 517.57227 a 167,167 0 0 0 10.46679,13.58203 167,167 0 0 0 16.84961,16.84961 167,167 0 0 0 19.07422,14.2793 167,167 0 0 0 20.91211,11.41797 167,167 0 0 0 22.32422,8.32812 167,167 0 0 0 23.2832,5.06445 167,167 0 0 0 23.76758,1.69922 167,167 0 0 0 23.76562,-1.69922 167,167 0 0 0 23.28321,-5.06445 167,167 0 0 0 22.32422,-8.32812 167,167 0 0 0 20.91406,-11.41797 167,167 0 0 0 19.07422,-14.2793 167,167 0 0 0 16.84765,-16.84961 167,167 0 0 0 10.4668,-13.58203 z" />
    <path
       id="path1157"
       style="fill:#9bd0a0;fill-opacity:1;stroke-width:1.27659"
       d="m 589.70703,55.503906 a 115.48226,84.690819 0 0 0 -3.33594,1.634766 115.48226,84.690819 0 0 0 -7.12109,4.117187 115.48226,84.690819 0 0 0 -6.6582,4.513672 115.48226,84.690819 0 0 0 -6.15625,4.882813 115.48226,84.690819 0 0 0 -5.61328,5.222656 115.48226,84.690819 0 0 0 -5.03711,5.529297 115.48226,84.690819 0 0 0 -4.42969,5.802734 115.48226,84.690819 0 0 0 -3.79688,6.039063 115.48226,84.690819 0 0 0 -3.13867,6.238281 115.48226,84.690819 0 0 0 -2.46094,6.400395 115.48226,84.690819 0 0 0 -1.76953,6.52148 115.48226,84.690819 0 0 0 -1.0664,6.60352 115.48226,84.690819 0 0 0 -0.35547,6.64453 115.48226,84.690819 0 0 0 0.35547,6.64453 115.48226,84.690819 0 0 0 1.0664,6.60547 115.48226,84.690819 0 0 0 1.76953,6.52148 115.48226,84.690819 0 0 0 2.46094,6.40039 115.48226,84.690819 0 0 0 3.13867,6.23828 115.48226,84.690819 0 0 0 3.79688,6.03907 115.48226,84.690819 0 0 0 4.42969,5.80273 115.48226,84.690819 0 0 0 5.03711,5.5293 115.48226,84.690819 0 0 0 5.61328,5.22265 115.48226,84.690819 0 0 0 6.15625,4.88282 115.48226,84.690819 0 0 0 6.6582,4.51367 115.48226,84.690819 0 0 0 7.12109,4.11719 115.48226,84.690819 0 0 0 7.53907,3.69335 115.48226,84.690819 0 0 0 7.91211,3.25 115.48226,84.690819 0 0 0 8.23437,2.78321 115.48226,84.690819 0 0 0 8.50781,2.30273 115.48226,84.690819 0 0 0 8.72657,1.80469 115.48226,84.690819 0 0 0 8.89453,1.29687 115.48226,84.690819 0 0 0 9.0039,0.78125 115.48226,84.690819 0 0 0 9.06055,0.26172 115.48226,84.690819 0 0 0 9.06055,-0.26172 115.48226,84.690819 0 0 0 9.0039,-0.78125 115.48226,84.690819 0 0 0 8.89453,-1.29687 115.48226,84.690819 0 0 0 8.72657,-1.80469 115.48226,84.690819 0 0 0 8.50781,-2.30273 115.48226,84.690819 0 0 0 8.23437,-2.78321 115.48226,84.690819 0 0 0 7.91211,-3.25 115.48226,84.690819 0 0 0 7.53907,-3.69335 115.48226,84.690819 0 0 0 7.12109,-4.11719 115.48226,84.690819 0 0 0 6.6582,-4.51367 115.48226,84.690819 0 0 0 6.15625,-4.88282 115.48226,84.690819 0 0 0 5.61328,-5.22265 115.48226,84.690819 0 0 0 5.03711,-5.5293 115.48226,84.690819 0 0 0 4.42969,-5.80273 115.48226,84.690819 0 0 0 3.79688,-6.03907 115.48226,84.690819 0 0 0 3.13867,-6.23828 115.48226,84.690819 0 0 0 2.46094,-6.40039 115.48226,84.690819 0 0 0 1.76953,-6.52148 115.48226,84.690819 0 0 0 0.0644,-0.29883 115.48226,84.690819 0 0 0 0.0625,-0.29883 115.48226,84.690819 0 0 0 0.0606,-0.29883 115.48226,84.690819 0 0 0 0.0586,-0.29883 115.48226,84.690819 0 0 0 0.0586,-0.30078 115.48226,84.690819 0 0 0 0.0566,-0.29882 115.48226,84.690819 0 0 0 0.0547,-0.29883 115.48226,84.690819 0 0 0 0.0527,-0.30078 115.48226,84.690819 0 0 0 0.0527,-0.29883 115.48226,84.690819 0 0 0 0.0508,-0.30078 115.48226,84.690819 0 0 0 0.0488,-0.30078 115.48226,84.690819 0 0 0 0.0488,-0.30079 115.48226,84.690819 0 0 0 0.0449,-0.29882 115.48226,84.690819 0 0 0 0.0449,-0.30079 115.48226,84.690819 0 0 0 0.043,-0.30078 115.48226,84.690819 0 0 0 0.043,-0.30078 115.48226,84.690819 0 0 0 0.041,-0.30078 115.48226,84.690819 0 0 0 0.0371,-0.30273 115.48226,84.690819 0 0 0 0.0391,-0.30079 115.48226,84.690819 0 0 0 0.0351,-0.30078 115.48226,84.690819 0 0 0 0.0352,-0.30078 115.48226,84.690819 0 0 0 0.0332,-0.30273 115.48226,84.690819 0 0 0 0.0312,-0.30078 115.48226,84.690819 0 0 0 0.0293,-0.30078 115.48226,84.690819 0 0 0 0.0293,-0.30274 115.48226,84.690819 0 0 0 0.0273,-0.30078 115.48226,84.690819 0 0 0 0.0254,-0.30273 115.48226,84.690819 0 0 0 0.0254,-0.30079 115.48226,84.690819 0 0 0 0.0215,-0.30273 115.48226,84.690819 0 0 0 0.0215,-0.30078 115.48226,84.690819 0 0 0 0.0195,-0.30274 115.48226,84.690819 0 0 0 0.0195,-0.30273 115.48226,84.690819 0 0 0 0.0156,-0.30078 115.48226,84.690819 0 0 0 0.0156,-0.30274 115.48226,84.690819 0 0 0 0.0137,-0.30273 115.48226,84.690819 0 0 0 0.0137,-0.30273 115.48226,84.690819 0 0 0 0.0117,-0.30079 115.48226,84.690819 0 0 0 0.008,-0.30273 115.48226,84.690819 0 0 0 0.01,-0.30273 115.48226,84.690819 0 0 0 0.006,-0.30274 115.48226,84.690819 0 0 0 0.006,-0.30273 115.48226,84.690819 0 0 0 0.002,-0.30078 115.48226,84.690819 0 0 0 0.004,-0.30274 115.48226,84.690819 0 0 0 0,-0.30273 115.48226,84.690819 0 0 0 -0.16992,-4.58399 115.48226,84.690819 0 0 0 -0.50781,-4.57226 115.48226,84.690819 0 0 0 -0.84375,-4.54493 115.48226,84.690819 0 0 0 -1.17774,-4.5039 115.48226,84.690819 0 0 0 -1.50976,-4.45117 115.48226,84.690819 0 0 0 -1.83594,-4.384769 115.48226,84.690819 0 0 0 -2.15625,-4.304687 115.48226,84.690819 0 0 0 -2.47266,-4.214844 115.48226,84.690819 0 0 0 -2.77929,-4.109375 115.48226,84.690819 0 0 0 -3.07813,-3.992187 115.48226,84.690819 0 0 0 -3.36719,-3.865235 115.48226,84.690819 0 0 0 -3.64843,-3.724609 115.48226,84.690819 0 0 0 -3.91993,-3.574219 115.48226,84.690819 0 0 0 -4.17578,-3.414063 115.48226,84.690819 0 0 0 -4.42187,-3.24414 115.48226,84.690819 0 0 0 -4.65625,-3.0625 115.48226,84.690819 0 0 0 -4.875,-2.873047 115.48226,84.690819 0 0 0 -5.08008,-2.677734 115.48226,84.690819 0 0 0 -3.41602,-1.59961 167,167 0 0 0 -5.13085,-1.980469 167,167 0 0 0 -7.78321,-2.570312 167,167 0 0 0 -7.89844,-2.1875 167,167 0 0 0 -7.99804,-1.794922 167,167 0 0 0 -8.07617,-1.402344 167,167 0 0 0 -8.13477,-1.001953 167,167 0 0 0 -8.17578,-0.603515 167,167 0 0 0 -8.19336,-0.201172 167,167 0 0 0 -23.76758,1.699218 167,167 0 0 0 -23.2832,5.066407 167,167 0 0 0 -17.49219,6.523437 z" />
    <path
       id="path7599"
       style="fill:#fd9105;fill-opacity:1;stroke-width:1.27659"
       d="m 715.64062,53.957 a 115.48226,84.690819 0 0 1 3.41602,1.59961 115.48226,84.690819 0 0 1 5.08008,2.67774 115.48226,84.690819 0 0 1 4.875,2.87304 115.48226,84.690819 0 0 1 4.65625,3.0625 115.48226,84.690819 0 0 1 4.42187,3.24414 115.48226,84.690819 0 0 1 4.17578,3.41406 115.48226,84.690819 0 0 1 3.91993,3.57422 115.48226,84.690819 0 0 1 3.64843,3.72461 115.48226,84.690819 0 0 1 3.36719,3.86524 115.48226,84.690819 0 0 1 3.07813,3.99219 115.48226,84.690819 0 0 1 2.77929,4.10937 115.48226,84.690819 0 0 1 2.47266,4.21484 115.48226,84.690819 0 0 1 2.15625,4.30469 115.48226,84.690819 0 0 1 1.83594,4.38477 115.48226,84.690819 0 0 1 1.50976,4.45117 115.48226,84.690819 0 0 1 1.17774,4.5039 115.48226,84.690819 0 0 1 0.84375,4.54493 115.48226,84.690819 0 0 1 0.50781,4.57226 115.48226,84.690819 0 0 1 0.16992,4.58399 115.48226,84.690819 0 0 1 0,0.30273 115.48226,84.690819 0 0 1 -0.004,0.30274 115.48226,84.690819 0 0 1 -0.002,0.30078 115.48226,84.690819 0 0 1 -0.006,0.30273 115.48226,84.690819 0 0 1 -0.006,0.30274 115.48226,84.690819 0 0 1 -0.01,0.30273 115.48226,84.690819 0 0 1 -0.008,0.30273 115.48226,84.690819 0 0 1 -0.0117,0.30079 115.48226,84.690819 0 0 1 -0.0137,0.30273 115.48226,84.690819 0 0 1 -0.0137,0.30273 115.48226,84.690819 0 0 1 -0.0156,0.30274 115.48226,84.690819 0 0 1 -0.0156,0.30078 115.48226,84.690819 0 0 1 -0.0195,0.30273 115.48226,84.690819 0 0 1 -0.0195,0.30274 115.48226,84.690819 0 0 1 -0.0215,0.30078 115.48226,84.690819 0 0 1 -0.0215,0.30273 115.48226,84.690819 0 0 1 -0.0254,0.30079 115.48226,84.690819 0 0 1 -0.0254,0.30273 115.48226,84.690819 0 0 1 -0.0273,0.30078 115.48226,84.690819 0 0 1 -0.0293,0.30274 115.48226,84.690819 0 0 1 -0.0293,0.30078 115.48226,84.690819 0 0 1 -0.0312,0.30078 115.48226,84.690819 0 0 1 -0.0332,0.30273 115.48226,84.690819 0 0 1 -0.0352,0.30078 115.48226,84.690819 0 0 1 -0.0351,0.30078 115.48226,84.690819 0 0 1 -0.0391,0.30079 115.48226,84.690819 0 0 1 -0.0371,0.30273 115.48226,84.690819 0 0 1 -0.041,0.30078 115.48226,84.690819 0 0 1 -0.043,0.30078 115.48226,84.690819 0 0 1 -0.043,0.30078 115.48226,84.690819 0 0 1 -0.0449,0.30079 115.48226,84.690819 0 0 1 -0.0449,0.29882 115.48226,84.690819 0 0 1 -0.0488,0.30079 115.48226,84.690819 0 0 1 -0.0488,0.30078 115.48226,84.690819 0 0 1 -0.0508,0.30078 115.48226,84.690819 0 0 1 -0.0527,0.29883 115.48226,84.690819 0 0 1 -0.0527,0.30078 115.48226,84.690819 0 0 1 -0.0547,0.29883 115.48226,84.690819 0 0 1 -0.0566,0.29882 115.48226,84.690819 0 0 1 -0.0586,0.30078 115.48226,84.690819 0 0 1 -0.0586,0.29883 115.48226,84.690819 0 0 1 -0.0606,0.29883 115.48226,84.690819 0 0 1 -0.0625,0.29883 115.48226,84.690819 0 0 1 -0.0644,0.29883 115.48226,84.690819 0 0 1 -1.76953,6.52148 115.48226,84.690819 0 0 1 -2.46094,6.40039 115.48226,84.690819 0 0 1 -3.13867,6.23828 115.48226,84.690819 0 0 1 -3.79688,6.03907 115.48226,84.690819 0 0 1 -4.42969,5.80273 115.48226,84.690819 0 0 1 -5.03711,5.5293 115.48226,84.690819 0 0 1 -5.61328,5.22265 115.48226,84.690819 0 0 1 -6.15625,4.88282 115.48226,84.690819 0 0 1 -6.6582,4.51367 115.48226,84.690819 0 0 1 -7.12109,4.11719 115.48226,84.690819 0 0 1 -7.53907,3.69335 115.48226,84.690819 0 0 1 -7.91211,3.25 115.48226,84.690819 0 0 1 -8.23437,2.78321 115.48226,84.690819 0 0 1 -8.50781,2.30273 115.48226,84.690819 0 0 1 -8.72657,1.80469 115.48226,84.690819 0 0 1 -8.89453,1.29687 115.48226,84.690819 0 0 1 -9.0039,0.78125 115.48226,84.690819 0 0 1 -9.06055,0.26172 115.48226,84.690819 0 0 1 -9.06055,-0.26172 115.48226,84.690819 0 0 1 -9.0039,-0.78125 115.48226,84.690819 0 0 1 -8.89453,-1.29687 115.48226,84.690819 0 0 1 -8.72657,-1.80469 115.48226,84.690819 0 0 1 -8.50781,-2.30273 115.48226,84.690819 0 0 1 -8.23437,-2.78321 115.48226,84.690819 0 0 1 -7.91211,-3.25 115.48226,84.690819 0 0 1 -7.53907,-3.69335 115.48226,84.690819 0 0 1 -7.12109,-4.11719 115.48226,84.690819 0 0 1 -6.6582,-4.51367 115.48226,84.690819 0 0 1 -6.15625,-4.88282 115.48226,84.690819 0 0 1 -5.61328,-5.22265 115.48226,84.690819 0 0 1 -5.03711,-5.5293 115.48226,84.690819 0 0 1 -4.42969,-5.80273 115.48226,84.690819 0 0 1 -3.79688,-6.03907 115.48226,84.690819 0 0 1 -3.13867,-6.23828 115.48226,84.690819 0 0 1 -2.46094,-6.40039 115.48226,84.690819 0 0 1 -1.76953,-6.52148 115.48226,84.690819 0 0 1 -1.0664,-6.60547 115.48226,84.690819 0 0 1 -0.35547,-6.64453 115.48226,84.690819 0 0 1 0.35547,-6.64453 115.48226,84.690819 0 0 1 1.0664,-6.60352 115.48226,84.690819 0 0 1 1.76953,-6.52148 115.48226,84.690819 0 0 1 2.46094,-6.40039 115.48226,84.690819 0 0 1 3.13867,-6.23829 115.48226,84.690819 0 0 1 3.79688,-6.03906 115.48226,84.690819 0 0 1 4.42969,-5.80273 115.48226,84.690819 0 0 1 5.03711,-5.5293 115.48226,84.690819 0 0 1 5.61328,-5.22266 115.48226,84.690819 0 0 1 6.15625,-4.88281 115.48226,84.690819 0 0 1 6.6582,-4.51367 115.48226,84.690819 0 0 1 7.12109,-4.11719 115.48226,84.690819 0 0 1 3.33594,-1.63476 167,167 0 0 0 -4.83203,1.80273 167,167 0 0 0 -20.91211,11.41797 167,167 0 0 0 -19.07422,14.2793 167,167 0 0 0 -16.84961,16.84961 167,167 0 0 0 -14.27929,19.07421 167,167 0 0 0 -11.41797,20.91211 167,167 0 0 0 -8.32813,22.32618 167,167 0 0 0 -5.06445,23.2832 167,167 0 0 0 -1.69922,23.76562 167,167 0 0 0 1.33594,20.37891 h 273.54297 c 3.1468,-0.29305 6.20906,-0.65349 9.1875,-1.08203 2.97843,-0.42854 5.87249,-0.92548 8.68164,-1.49024 2.80915,-0.56475 5.53292,-1.19867 8.17187,-1.90039 2.63895,-0.70171 5.19233,-1.47113 7.66016,-2.31054 2.46783,-0.83941 4.85069,-1.74872 7.14648,-2.72657 2.2958,-0.97784 4.50607,-2.02556 6.62891,-3.14257 2.12284,-1.11702 4.15845,-2.30363 6.10742,-3.56055 1.92987,-1.2446 3.7708,-2.5589 5.5293,-3.94141 a 167,167 0 0 0 0.008,-0.22461 167,167 0 0 0 -0.20117,-8.19336 167,167 0 0 0 -0.60352,-8.17578 167,167 0 0 0 -1.0039,-8.13476 167,167 0 0 0 -1.40039,-8.07617 167,167 0 0 0 -1.79688,-7.99805 167,167 0 0 0 -2.18555,-7.89844 167,167 0 0 0 -2.57031,-7.7832 167,167 0 0 0 -2.95117,-7.64844 167,167 0 0 0 -3.32227,-7.49414 167,167 0 0 0 -3.68359,-7.32031 167,167 0 0 0 -4.04102,-7.13281 167,167 0 0 0 -4.38476,-6.92383 167,167 0 0 0 -4.7207,-6.70313 167,167 0 0 0 -5.04297,-6.46094 167,167 0 0 0 -5.35352,-6.20703 167,167 0 0 0 -5.65234,-5.93554 167,167 0 0 0 -5.93555,-5.65235 167,167 0 0 0 -6.20703,-5.35351 167,167 0 0 0 -6.46289,-5.04297 167,167 0 0 0 -6.70117,-4.7207 167,167 0 0 0 -6.92383,-4.38477 167,167 0 0 0 -7.13281,-4.04102 167,167 0 0 0 -7.32227,-3.68554 167,167 0 0 0 -7.49219,-3.32032 167,167 0 0 0 -2.51758,-0.9707 z" />
    <path
       id="path7662"
       style="fill:#000000;stroke-width:1.27659"
       d="M 654.25,4.215 A 147.95699,121.04641 0 0 0 630.62695,5.90446 205,205 0 0 0 449.25,209.215 a 205,205 0 0 0 205,205 205,205 0 0 0 205,-205 A 205,205 0 0 0 679.44336,6.01578 147.95699,121.04641 0 0 0 654.25,4.215 Z m 0,38 a 167,167 0 0 1 8.19336,0.20118 167,167 0 0 1 8.17578,0.60351 167,167 0 0 1 8.13477,1.00195 167,167 0 0 1 8.07617,1.40235 167,167 0 0 1 7.99804,1.79492 167,167 0 0 1 7.89844,2.1875 167,167 0 0 1 7.78321,2.57031 167,167 0 0 1 5.13085,1.98047 115.48226,84.690819 0 0 1 3.41602,1.59961 115.48226,84.690819 0 0 1 0.76172,0.40234 99.522324,97.650505 0 0 0 -77.41797,94.96094 99.522324,97.650505 0 0 0 9.89649,41.43555 H 583.4707 a 115.48226,84.690819 0 0 1 -10.8789,-6.81445 115.48226,84.690819 0 0 1 -11.76953,-10.10547 115.48226,84.690819 0 0 1 -9.4668,-11.33203 115.48226,84.690819 0 0 1 -6.93555,-12.27735 115.48226,84.690819 0 0 1 -4.23047,-12.92187 115.48226,84.690819 0 0 1 -1.42187,-13.25 115.48226,84.690819 0 0 1 1.42187,-13.24805 115.48226,84.690819 0 0 1 4.23047,-12.92187 115.48226,84.690819 0 0 1 6.93555,-12.27735 115.48226,84.690819 0 0 1 9.4668,-11.33203 115.48226,84.690819 0 0 1 11.76953,-10.10547 115.48226,84.690819 0 0 1 13.77929,-8.63086 115.48226,84.690819 0 0 1 5.10352,-2.29297 167,167 0 0 1 15.72461,-5.86523 167,167 0 0 1 23.2832,-5.06641 A 167,167 0 0 1 654.25,42.215 Z m 85.84375,48.03711 a 61.602573,61.602573 0 0 1 3.86719,0.12305 61.602573,61.602573 0 0 1 3.85351,0.36328 61.602573,61.602573 0 0 1 3.82227,0.60547 61.602573,61.602573 0 0 1 3.77734,0.84375 61.602573,61.602573 0 0 1 3.71485,1.08008 61.602573,61.602573 0 0 1 2.27148,0.8164 115.48226,84.690819 0 0 1 0.13086,0.22461 115.48226,84.690819 0 0 1 2.15625,4.30469 115.48226,84.690819 0 0 1 1.83594,4.38477 115.48226,84.690819 0 0 1 1.50976,4.45117 115.48226,84.690819 0 0 1 1.17774,4.5039 115.48226,84.690819 0 0 1 0.84375,4.54493 115.48226,84.690819 0 0 1 0.50781,4.57226 115.48226,84.690819 0 0 1 0.16992,4.58399 115.48226,84.690819 0 0 1 -1.42187,13.25 115.48226,84.690819 0 0 1 -4.23047,12.92187 115.48226,84.690819 0 0 1 -6.93555,12.27735 115.48226,84.690819 0 0 1 -9.4668,11.33203 115.48226,84.690819 0 0 1 -11.76953,10.10547 115.48226,84.690819 0 0 1 -13.77929,8.63086 115.48226,84.690819 0 0 1 -15.45118,6.94335 115.48226,84.690819 0 0 1 -2.25,0.6836 61.602573,61.602573 0 0 1 -3.93164,-2.75391 61.602573,61.602573 0 0 1 -7.59375,-7.5918 61.602573,61.602573 0 0 1 -6.1582,-8.79687 61.602573,61.602573 0 0 1 -4.53711,-9.73242 61.602573,61.602573 0 0 1 -2.7793,-10.3711 61.602573,61.602573 0 0 1 -0.9375,-10.69726 61.602573,61.602573 0 0 1 0.9375,-10.69727 61.602573,61.602573 0 0 1 2.7793,-10.37304 61.602573,61.602573 0 0 1 4.53711,-9.73047 61.602573,61.602573 0 0 1 6.1582,-8.79688 61.602573,61.602573 0 0 1 7.59375,-7.59375 61.602573,61.602573 0 0 1 8.79688,-6.1582 61.602573,61.602573 0 0 1 9.73047,-4.53906 61.602573,61.602573 0 0 1 10.37304,-2.7793 61.602573,61.602573 0 0 1 10.69727,-0.93555 z M 506.8457,131.59 a 147.95699,121.04641 0 0 0 24.98633,60.76563 h -43.37695 a 167,167 0 0 1 0.49414,-6.90625 167,167 0 0 1 5.06445,-23.2832 167,167 0 0 1 8.32813,-22.32618 167,167 0 0 1 4.5039,-8.25 z m 293.71289,8.51563 a 61.602573,61.602573 0 0 1 0.0469,0.20703 61.602573,61.602573 0 0 1 0.60547,3.82227 61.602573,61.602573 0 0 1 0.36328,3.85156 61.602573,61.602573 0 0 1 0.12109,3.86914 61.602573,61.602573 0 0 1 -0.93554,10.69726 61.602573,61.602573 0 0 1 -2.7793,10.3711 61.602573,61.602573 0 0 1 -4.53711,9.73242 61.602573,61.602573 0 0 1 -6.16016,8.79687 61.602573,61.602573 0 0 1 -7.59179,7.5918 61.602573,61.602573 0 0 1 -8.79688,6.16016 61.602573,61.602573 0 0 1 -9.73242,4.53711 61.602573,61.602573 0 0 1 -2.39063,0.64062 147.95699,121.04641 0 0 0 41.78711,-70.27734 z m 20.66993,69.39844 a 167,167 0 0 1 -0.25196,3.52343 167,167 0 0 1 -0.002,0.0332 c -0.064,0.72865 -0.10643,1.4719 -0.19336,2.18554 -0.23251,1.90877 -0.52681,3.77742 -0.88477,5.60352 -0.35796,1.8261 -0.77868,3.60978 -1.26757,5.34961 -0.32632,1.16129 -0.72855,2.27291 -1.11524,3.39453 -0.19264,0.55878 -0.34675,1.14276 -0.55469,1.69141 -0.62526,1.6499 -1.32069,3.25409 -2.08789,4.81054 -0.76719,1.55645 -1.60691,3.0641 -2.52148,4.52344 -0.91457,1.45934 -1.90524,2.86989 -2.97266,4.22852 -1.06742,1.35858 -2.21174,2.66563 -3.4375,3.91992 -1.22575,1.25429 -2.5323,2.45521 -3.92187,3.60156 -1.38957,1.14635 -2.86301,2.23864 -4.42188,3.27344 -1.55887,1.03479 -3.20385,2.01201 -4.9375,2.93164 -1.73364,0.91963 -3.55484,1.78118 -5.46875,2.58203 -1.91386,0.80085 -3.91988,1.54224 -6.01953,2.2207 -2.09964,0.67847 -4.29312,1.29324 -6.58398,1.84571 -2.29087,0.55246 -4.67845,1.04199 -7.16602,1.46484 -2.48757,0.42285 -5.07591,0.78069 -7.76562,1.07031 H 498.30078 a 167,167 0 0 1 -4.28711,-11.49414 167,167 0 0 1 -5.06445,-23.28125 167,167 0 0 1 -0.24219,-3.38867 h 91.32813 a 147.95699,121.04641 0 0 0 74.21484,16.71484 147.95699,121.04641 0 0 0 46.83789,-6.37695 99.522324,97.650505 0 0 0 40.83399,8.63867 99.522324,97.650505 0 0 0 79.30664,-39.0664 z M 517.87109,304.9943 h 272.75586 a 167,167 0 0 1 -10.16797,13.58203 167,167 0 0 1 -16.84765,16.84961 167,167 0 0 1 -19.07422,14.2793 167,167 0 0 1 -20.91406,11.41797 167,167 0 0 1 -22.32422,8.32812 167,167 0 0 1 -23.28321,5.06445 167,167 0 0 1 -23.76562,1.69922 167,167 0 0 1 -23.76758,-1.69922 167,167 0 0 1 -23.2832,-5.06445 167,167 0 0 1 -22.32422,-8.32812 167,167 0 0 1 -20.91211,-11.41797 167,167 0 0 1 -19.07422,-14.2793 167,167 0 0 1 -16.84961,-16.84961 167,167 0 0 1 -10.16797,-13.58203 z" />
    <path
       id="path7601"
       style="fill:#5686d1;fill-opacity:1;stroke-width:1.27659"
       d="m 821.24219,209.43942 c -1.7585,1.38251 -3.59943,2.69681 -5.5293,3.94141 -1.94897,1.25692 -3.98458,2.44353 -6.10742,3.56055 -2.12284,1.11701 -4.33311,2.16473 -6.62891,3.14257 -2.29579,0.97785 -4.67865,1.88716 -7.14648,2.72657 -2.46783,0.83941 -5.02121,1.60883 -7.66016,2.31054 -2.63895,0.70172 -5.36272,1.33564 -8.17187,1.90039 -2.80915,0.56476 -5.70321,1.0617 -8.68164,1.49024 -2.97844,0.42854 -6.0407,0.78898 -9.1875,1.08203 l -273.54297,2.8e-4 c 0.10956,1.13076 0.23066,2.2601 0.36328,3.38839 1.13171,7.8711 2.82416,15.65131 5.06445,23.28125 1.14111,3.8766 2.42255,7.7105 3.8418,11.49414 H 759.6543 c 2.68975,-0.28962 5.27805,-0.64746 7.76562,-1.07031 2.48757,-0.42285 4.87515,-0.91238 7.16602,-1.46484 2.29086,-0.55247 4.48434,-1.16724 6.58398,-1.84571 2.09965,-0.67846 4.10563,-1.41985 6.01953,-2.2207 1.91391,-0.80085 3.73511,-1.6624 5.46875,-2.58203 1.73365,-0.91963 3.37863,-1.89685 4.9375,-2.93164 1.55887,-1.0348 3.03231,-2.12709 4.42188,-3.27344 1.38957,-1.14635 2.69612,-2.34727 3.92187,-3.60156 1.22576,-1.25429 2.37008,-2.5613 3.4375,-3.91992 1.06742,-1.35863 2.05809,-2.76918 2.97266,-4.22852 0.91457,-1.45934 1.75429,-2.96699 2.52148,-4.52344 0.7672,-1.55645 1.46259,-3.1606 2.08789,-4.81054 0.62531,-1.64995 1.18104,-3.34611 1.66993,-5.08594 0.48889,-1.73983 0.90961,-3.52351 1.26757,-5.34961 0.35796,-1.8261 0.65226,-3.69475 0.88477,-5.60352 0.19196,-1.57586 0.31592,-3.19621 0.42578,-4.82617 0.0127,-0.32679 0.0244,-0.65361 0.0352,-0.98047 z" />
    <path
       id="path7808"
       style="fill:#ffd700;fill-opacity:1;stroke-width:1.00756"
       d="m 740.09375,90.252 a 61.602573,61.602573 0 0 0 -10.69727,0.93555 61.602573,61.602573 0 0 0 -10.37304,2.77929 61.602573,61.602573 0 0 0 -9.73047,4.53907 61.602573,61.602573 0 0 0 -8.79688,6.1582 61.602573,61.602573 0 0 0 -7.59375,7.59375 61.602573,61.602573 0 0 0 -6.1582,8.79688 61.602573,61.602573 0 0 0 -4.53711,9.73047 61.602573,61.602573 0 0 0 -2.7793,10.37304 61.602573,61.602573 0 0 0 -0.9375,10.69727 61.602573,61.602573 0 0 0 0.9375,10.69726 61.602573,61.602573 0 0 0 2.7793,10.3711 61.602573,61.602573 0 0 0 4.53711,9.73242 61.602573,61.602573 0 0 0 6.1582,8.79687 61.602573,61.602573 0 0 0 7.59375,7.5918 61.602573,61.602573 0 0 0 8.79688,6.16016 61.602573,61.602573 0 0 0 9.73047,4.53711 61.602573,61.602573 0 0 0 10.37304,2.77929 61.602573,61.602573 0 0 0 10.69727,0.93555 61.602573,61.602573 0 0 0 10.69727,-0.93555 61.602573,61.602573 0 0 0 10.37109,-2.77929 61.602573,61.602573 0 0 0 9.73242,-4.53711 61.602573,61.602573 0 0 0 8.79688,-6.16016 61.602573,61.602573 0 0 0 7.59179,-7.5918 61.602573,61.602573 0 0 0 6.16016,-8.79687 61.602573,61.602573 0 0 0 4.53711,-9.73242 61.602573,61.602573 0 0 0 2.7793,-10.3711 61.602573,61.602573 0 0 0 0.93554,-10.69726 61.602573,61.602573 0 0 0 -0.12109,-3.86914 61.602573,61.602573 0 0 0 -0.36328,-3.85156 61.602573,61.602573 0 0 0 -0.60547,-3.82227 61.602573,61.602573 0 0 0 -0.84375,-3.77734 61.602573,61.602573 0 0 0 -1.08008,-3.7168 61.602573,61.602573 0 0 0 -1.31055,-3.64063 61.602573,61.602573 0 0 0 -1.53711,-3.55273 61.602573,61.602573 0 0 0 -1.75781,-3.44727 61.602573,61.602573 0 0 0 -1.9707,-3.33007 61.602573,61.602573 0 0 0 -2.17383,-3.20118 61.602573,61.602573 0 0 0 -2.37305,-3.05859 A 61.602573,61.602573 0 0 0 785,109.6856 a 61.602573,61.602573 0 0 0 -2.73633,-2.73633 61.602573,61.602573 0 0 0 -2.90234,-2.56055 61.602573,61.602573 0 0 0 -3.0586,-2.37109 61.602573,61.602573 0 0 0 -3.20117,-2.17579 61.602573,61.602573 0 0 0 -3.33008,-1.96875 61.602573,61.602573 0 0 0 -3.44921,-1.75781 61.602573,61.602573 0 0 0 -3.55079,-1.53711 61.602573,61.602573 0 0 0 -3.64257,-1.31054 61.602573,61.602573 0 0 0 -3.71485,-1.08008 61.602573,61.602573 0 0 0 -3.77734,-0.84375 61.602573,61.602573 0 0 0 -3.82227,-0.60547 61.602573,61.602573 0 0 0 -3.85351,-0.36328 61.602573,61.602573 0 0 0 -3.86719,-0.12305 z" />
    <path
       id="path6525-7"
       style="fill:#000000;fill-opacity:1;stroke-width:0.364521"
       d="m 730.89527,121.39533 a 22.286935,22.286935 0 0 0 -3.87011,0.33846 22.286935,22.286935 0 0 0 -3.75283,1.00551 22.286935,22.286935 0 0 0 -3.52034,1.64218 22.286935,22.286935 0 0 0 -3.18258,2.22794 22.286935,22.286935 0 0 0 -2.74732,2.74731 22.286935,22.286935 0 0 0 -2.22794,3.18258 22.286935,22.286935 0 0 0 -1.64147,3.52034 22.286935,22.286935 0 0 0 -1.00551,3.75283 22.286935,22.286935 0 0 0 -0.33917,3.87012 22.286935,22.286935 0 0 0 0.33917,3.87012 22.286935,22.286935 0 0 0 1.00551,3.75211 22.286935,22.286935 0 0 0 1.64147,3.52106 22.286935,22.286935 0 0 0 2.22794,3.18258 22.286935,22.286935 0 0 0 2.74732,2.74661 22.286935,22.286935 0 0 0 3.18258,2.22864 22.286935,22.286935 0 0 0 3.52034,1.64147 22.286935,22.286935 0 0 0 3.75283,1.00552 22.286935,22.286935 0 0 0 3.87011,0.33846 22.286935,22.286935 0 0 0 3.87012,-0.33846 22.286935,22.286935 0 0 0 3.75212,-1.00552 22.286935,22.286935 0 0 0 3.52105,-1.64147 22.286935,22.286935 0 0 0 3.1826,-2.22864 22.286935,22.286935 0 0 0 2.7466,-2.74661 22.286935,22.286935 0 0 0 2.22864,-3.18258 22.286935,22.286935 0 0 0 1.64147,-3.52106 22.286935,22.286935 0 0 0 1.00551,-3.75211 22.286935,22.286935 0 0 0 0.33846,-3.87012 22.286935,22.286935 0 0 0 -0.0439,-1.3998 22.286935,22.286935 0 0 0 -0.13142,-1.39343 22.286935,22.286935 0 0 0 -0.21905,-1.38285 22.286935,22.286935 0 0 0 -0.30526,-1.36659 22.286935,22.286935 0 0 0 -0.39075,-1.34469 22.286935,22.286935 0 0 0 -0.47415,-1.31711 22.286935,22.286935 0 0 0 -0.55611,-1.28534 22.286935,22.286935 0 0 0 -0.63593,-1.24717 22.286935,22.286935 0 0 0 -0.71298,-1.20477 22.286935,22.286935 0 0 0 -0.78645,-1.15815 22.286935,22.286935 0 0 0 -0.85854,-1.10654 22.286935,22.286935 0 0 0 -0.92566,-1.05004 22.286935,22.286935 0 0 0 -0.98997,-0.98996 22.286935,22.286935 0 0 0 -1.05002,-0.92637 22.286935,22.286935 0 0 0 -1.10657,-0.85783 22.286935,22.286935 0 0 0 -1.15813,-0.78716 22.286935,22.286935 0 0 0 -1.20477,-0.71228 22.286935,22.286935 0 0 0 -1.24788,-0.63593 22.286935,22.286935 0 0 0 -1.28464,-0.55611 22.286935,22.286935 0 0 0 -1.31782,-0.47414 22.286935,22.286935 0 0 0 -1.34398,-0.39076 22.286935,22.286935 0 0 0 -1.36659,-0.30526 22.286935,22.286935 0 0 0 -1.38284,-0.21904 22.286935,22.286935 0 0 0 -1.39414,-0.13143 22.286935,22.286935 0 0 0 -1.39911,-0.0445 z" />
  </g>
</svg>
